<svg width="20" height="20" viewBox="0 0 20 20" fill="none" xmlns="http://www.w3.org/2000/svg">
<path d="M4.16258 2.5C3.24385 2.5 2.5 3.24436 2.5 4.16258V15.8374C2.5 16.7562 3.24436 17.5 4.16258 17.5H15.8374C16.7562 17.5 17.5 16.7557 17.5 15.8374V4.16258C17.5 3.24385 16.7557 2.5 15.8374 2.5H4.16258ZM4.16667 15.8333V4.16667H15.8333V15.8333H4.16667ZM10 6.66667C10.4602 6.66667 10.8333 7.03977 10.8333 7.5C10.8333 7.96023 10.4602 8.33333 10 8.33333C9.53975 8.33333 9.16667 7.96023 9.16667 7.5C9.16667 7.03977 9.53975 6.66667 10 6.66667ZM10 10C11.3807 10 12.5 8.88075 12.5 7.5C12.5 6.11929 11.3807 5 10 5C8.61925 5 7.5 6.11929 7.5 7.5C7.5 8.88075 8.61925 10 10 10ZM10 12.5C9.0795 12.5 8.33333 13.2462 8.33333 14.1667H6.66667C6.66667 12.3257 8.15905 10.8333 10 10.8333C11.8409 10.8333 13.3333 12.3257 13.3333 14.1667H11.6667C11.6667 13.2462 10.9205 12.5 10 12.5Z" fill="currentColor"/>
</svg>
