<svg width="16" height="16" viewBox="0 0 16 16" fill="none" xmlns="http://www.w3.org/2000/svg">
    <path
        d="M1.9694 7.46975L6.46937 2.96975C6.61027 2.82886 6.80137 2.74969 7.00062 2.74969C7.19988 2.74969 7.39098 2.82886 7.53187 2.96975C7.67277 3.11064 7.75193 3.30174 7.75193 3.501C7.75193 3.70026 7.67277 3.89136 7.53187 4.03225L4.3125 7.25038H13.5C13.6989 7.25038 13.8897 7.3294 14.0303 7.47005C14.171 7.6107 14.25 7.80147 14.25 8.00038C14.25 8.19929 14.171 8.39006 14.0303 8.53071C13.8897 8.67136 13.6989 8.75038 13.5 8.75038H4.3125L7.53063 11.9704C7.67152 12.1113 7.75068 12.3024 7.75068 12.5016C7.75068 12.7009 7.67152 12.8919 7.53063 13.0328C7.38973 13.1737 7.19863 13.2529 6.99938 13.2529C6.80012 13.2529 6.60902 13.1737 6.46813 13.0328L1.96813 8.53275C1.89825 8.46302 1.84273 8.38012 1.80491 8.28885C1.76709 8.19759 1.74766 8.09975 1.74775 8.00096C1.74798 7.90217 1.7676 7.80438 1.80557 7.71321C1.84355 7.62203 1.89928 7.53926 1.9694 7.46975Z"
        fill="currentColor"></path>
</svg>