<svg width="20" height="20" viewBox="0 0 20 20" fill="none" xmlns="http://www.w3.org/2000/svg">
<path d="M1.66797 16.6665H18.3346V18.3332H1.66797V16.6665ZM3.33464 9.99984H5.0013V15.8332H3.33464V9.99984ZM7.5013 9.99984H9.16797V15.8332H7.5013V9.99984ZM10.8346 9.99984H12.5013V15.8332H10.8346V9.99984ZM15.0013 9.99984H16.668V15.8332H15.0013V9.99984ZM1.66797 5.83317L10.0013 1.6665L18.3346 5.83317V9.1665H1.66797V5.83317ZM3.33464 6.86323V7.49984H16.668V6.86323L10.0013 3.5299L3.33464 6.86323ZM10.0013 6.6665C9.54105 6.6665 9.16797 6.2934 9.16797 5.83317C9.16797 5.37294 9.54105 4.99984 10.0013 4.99984C10.4616 4.99984 10.8346 5.37294 10.8346 5.83317C10.8346 6.2934 10.4616 6.6665 10.0013 6.6665Z" fill="currentColor"/>
</svg>
