<svg xmlns="http://www.w3.org/2000/svg" width="17" height="17" viewBox="0 0 17 17" fill="currentColor">
  <path
    d="M14.9 1.25926H13.3V0.944444C13.3 0.693962 13.1989 0.453739 13.0188 0.276621C12.8388 0.0995037 12.5946 0 12.34 0C12.0854 0 11.8412 0.0995037 11.6612 0.276621C11.4811 0.453739 11.38 0.693962 11.38 0.944444V1.25926H5.62V0.944444C5.62 0.693962 5.51886 0.453739 5.33882 0.276621C5.15879 0.0995037 4.91461 0 4.66 0C4.40539 0 4.16121 0.0995037 3.98118 0.276621C3.80114 0.453739 3.7 0.693962 3.7 0.944444V1.25926H2.1C1.67565 1.25926 1.26869 1.4251 0.968629 1.72029C0.668571 2.01549 0.5 2.41586 0.5 2.83333V15.4259C0.5 15.8434 0.668571 16.2438 0.968629 16.539C1.26869 16.8342 1.67565 17 2.1 17H14.9C15.3243 17 15.7313 16.8342 16.0314 16.539C16.3314 16.2438 16.5 15.8434 16.5 15.4259V2.83333C16.5 2.41586 16.3314 2.01549 16.0314 1.72029C15.7313 1.4251 15.3243 1.25926 14.9 1.25926ZM3.7 3.14815C3.7 3.39863 3.80114 3.63885 3.98118 3.81597C4.16121 3.99309 4.40539 4.09259 4.66 4.09259C4.91461 4.09259 5.15879 3.99309 5.33882 3.81597C5.51886 3.63885 5.62 3.39863 5.62 3.14815H11.38C11.38 3.39863 11.4811 3.63885 11.6612 3.81597C11.8412 3.99309 12.0854 4.09259 12.34 4.09259C12.5946 4.09259 12.8388 3.99309 13.0188 3.81597C13.1989 3.63885 13.3 3.39863 13.3 3.14815H14.58V5.03704H2.42V3.14815H3.7ZM2.42 15.1111V6.92593H14.58V15.1111H2.42Z" />
</svg>