<svg width="24" height="24" viewBox="0 0 24 24" fill="none" xmlns="http://www.w3.org/2000/svg">
<rect width="24" height="24" rx="12" fill="#091E42" fill-opacity="0.06"/>
<g clip-path="url(#clip0_2061_8793)">
<path d="M7.80714 7.80002C7.54714 8.06002 7.54714 8.48002 7.80714 8.74002L11.0605 12L7.80047 15.26C7.54047 15.52 7.54047 15.94 7.80047 16.2C8.06047 16.46 8.48047 16.46 8.74047 16.2L12.0005 12.94L15.2605 16.2C15.5205 16.46 15.9405 16.46 16.2005 16.2C16.4605 15.94 16.4605 15.52 16.2005 15.26L12.9405 12L16.2005 8.74002C16.4605 8.48002 16.4605 8.06002 16.2005 7.80002C15.9405 7.54002 15.5205 7.54002 15.2605 7.80002L12.0005 11.06L8.74047 7.80002C8.48714 7.54669 8.06047 7.54669 7.80714 7.80002Z" fill="#44546F"/>
</g>
<defs>
<clipPath id="clip0_2061_8793">
<rect width="16" height="16" fill="white" transform="translate(4 20) rotate(-90)"/>
</clipPath>
</defs>
</svg>
