<svg width="20" height="20" viewBox="0 0 20 20" fill="none" xmlns="http://www.w3.org/2000/svg">
<path d="M10.7145 3.8335C9.39598 3.8335 8.10705 4.22449 7.01072 4.95703C5.91439 5.68957 5.05991 6.73077 4.55532 7.94894C4.05074 9.16711 3.91872 10.5076 4.17595 11.8008C4.43319 13.094 5.06813 14.2819 6.00048 15.2142C6.93283 16.1466 8.12071 16.7815 9.41392 17.0387C10.7071 17.296 12.0476 17.1639 13.2657 16.6594C14.4839 16.1548 15.5251 15.3003 16.2576 14.204C16.9902 13.1076 17.3812 11.8187 17.3812 10.5002C17.3812 8.73205 16.6788 7.03636 15.4286 5.78612C14.1783 4.53587 12.4826 3.8335 10.7145 3.8335ZM9.76214 13.1624L7.38119 10.7815L8.13862 10.024L9.76214 11.6474L13.2907 8.11921L14.0506 8.8744L9.76214 13.1624Z" fill="#22A06B"/>
</svg>
