<svg width="16" height="16" viewBox="0 0 16 16" fill="none" xmlns="http://www.w3.org/2000/svg">
<path d="M7.875 0C6.31748 0 4.79492 0.461861 3.49989 1.32718C2.20485 2.19249 1.19549 3.4224 0.599452 4.86137C0.00341211 6.30034 -0.152539 7.88374 0.151319 9.41134C0.455178 10.9389 1.2052 12.3421 2.30654 13.4435C3.40788 14.5448 4.81107 15.2948 6.33867 15.5987C7.86627 15.9025 9.44967 15.7466 10.8886 15.1506C12.3276 14.5545 13.5575 13.5452 14.4228 12.2501C15.2881 10.9551 15.75 9.43253 15.75 7.875C15.75 5.78642 14.9203 3.78338 13.4435 2.30653C11.9666 0.829685 9.96358 0 7.875 0ZM6.75 11.0198L3.9375 8.20732L4.83222 7.3125L6.75 9.23018L10.9181 5.0625L11.8157 5.95457L6.75 11.0198Z" fill="#22A06B"/>
</svg>
