<svg xmlns="http://www.w3.org/2000/svg" width="18" height="18" viewBox="0 0 18 18" fill="none">
  <g clip-path="url(#clip0_3938_7469)">
    <path d="M14.4262 11.4453L12.5212 11.2278C12.0637 11.1753 11.6137 11.3328 11.2912 11.6553L9.91119 13.0353C7.78869 11.9553 6.04869 10.2228 4.96869 8.09281L6.35619 6.70531C6.67869 6.38281 6.83619 5.93281 6.78369 5.47531L6.56619 3.58531C6.47619 2.82781 5.83869 2.25781 5.07369 2.25781H3.77619C2.92869 2.25781 2.22369 2.96281 2.27619 3.81031C2.67369 10.2153 7.79619 15.3303 14.1937 15.7278C15.0412 15.7803 15.7462 15.0753 15.7462 14.2278V12.9303C15.7537 12.1728 15.1837 11.5353 14.4262 11.4453Z" fill="white"/>
  </g>
  <defs>
    <clipPath id="clip0_3938_7469">
      <rect width="18" height="18" fill="white"/>
    </clipPath>
  </defs>
</svg>