<svg width="16" height="16" viewBox="0 0 18 18" fill="none" xmlns="http://www.w3.org/2000/svg">
<path d="M4.5 16.5C4.0875 16.5 3.73437 16.3531 3.44062 16.0594C3.14687 15.7656 3 15.4125 3 15V7.5C3 7.0875 3.14687 6.73438 3.44062 6.44063C3.73437 6.14688 4.0875 6 4.5 6H5.25V4.5C5.25 3.4625 5.61562 2.57813 6.34687 1.84688C7.07812 1.11563 7.9625 0.75 9 0.75C10.0375 0.75 10.9219 1.11563 11.6531 1.84688C12.3844 2.57813 12.75 3.4625 12.75 4.5V6H13.5C13.9125 6 14.2656 6.14688 14.5594 6.44063C14.8531 6.73438 15 7.0875 15 7.5V15C15 15.4125 14.8531 15.7656 14.5594 16.0594C14.2656 16.3531 13.9125 16.5 13.5 16.5H4.5ZM9 12.75C9.4125 12.75 9.76562 12.6031 10.0594 12.3094C10.3531 12.0156 10.5 11.6625 10.5 11.25C10.5 10.8375 10.3531 10.4844 10.0594 10.1906C9.76562 9.89688 9.4125 9.75 9 9.75C8.5875 9.75 8.23437 9.89688 7.94062 10.1906C7.64687 10.4844 7.5 10.8375 7.5 11.25C7.5 11.6625 7.64687 12.0156 7.94062 12.3094C8.23437 12.6031 8.5875 12.75 9 12.75ZM6.75 6H11.25V4.5C11.25 3.875 11.0312 3.34375 10.5937 2.90625C10.1562 2.46875 9.625 2.25 9 2.25C8.375 2.25 7.84375 2.46875 7.40625 2.90625C6.96875 3.34375 6.75 3.875 6.75 4.5V6Z" fill="#3A405A"/>
</svg>
