<svg width="24" height="24" viewBox="0 0 24 24" fill="none" xmlns="http://www.w3.org/2000/svg">
    <path d="M10 2H6C5.44772 2 5 2.44772 5 3V21C5 21.5523 5.44772 22 6 22H18C18.5523 22 19 21.5523 19 21V8L14 2H10Z"
        fill="currentColor" />
    <path d="M13 2H11L6 7H18V8L13 3V2Z" fill="currentColor" />
    <path
        d="M16.4853 13.8381L13.8484 16.4752C13.591 16.7326 13.0597 16.7326 12.8023 16.4752L12.1284 15.8013C11.871 15.5439 11.871 15.0126 12.1284 14.7552L14.7552 12.1284C15.0126 11.871 15.5439 11.871 15.8013 12.1284L16.4752 12.8023C16.7326 13.0597 16.7326 13.591 16.4752 13.8484L16.4853 13.8381Z"
        fill="currentColor" />
    <path
        d="M12 15.9999C13.6569 15.9999 15 14.6568 15 12.9999C15 11.343 13.6569 9.99993 12 9.99993C10.3431 9.99993 9 11.343 9 12.9999C9 14.6568 10.3431 15.9999 12 15.9999Z"
        fill="currentColor" />
</svg>