<svg xmlns="http://www.w3.org/2000/svg" width="18" height="14" viewBox="0 0 18 14" fill="none">
<path d="M2.33073 13.6654C1.8724 13.6654 1.48003 13.5022 1.15365 13.1758C0.827257 12.8494 0.664062 12.457 0.664062 11.9987V1.9987C0.664062 1.54036 0.827257 1.148 1.15365 0.821615C1.48003 0.495226 1.8724 0.332031 2.33073 0.332031H15.6641C16.1224 0.332031 16.5148 0.495226 16.8411 0.821615C17.1675 1.148 17.3307 1.54036 17.3307 1.9987V11.9987C17.3307 12.457 17.1675 12.8494 16.8411 13.1758C16.5148 13.5022 16.1224 13.6654 15.6641 13.6654H2.33073ZM15.6641 3.66536L9.4349 7.5612C9.36545 7.60286 9.29253 7.63411 9.21615 7.65495C9.13976 7.67578 9.06684 7.6862 8.9974 7.6862C8.92795 7.6862 8.85503 7.67578 8.77865 7.65495C8.70226 7.63411 8.62934 7.60286 8.5599 7.5612L2.33073 3.66536V11.9987H15.6641V3.66536ZM8.9974 6.16536L15.6641 1.9987H2.33073L8.9974 6.16536ZM2.33073 3.8737V2.64453V2.66536V2.65495V3.8737Z" fill="currentColor"/>
</svg>