<svg width="20" height="20" viewBox="0 0 20 20" fill="none" xmlns="http://www.w3.org/2000/svg">
<path d="M21.0801 10.9928L12.5028 2.41545C12.2351 2.14936 11.873 2 11.4955 2C11.1181 2 10.7559 2.14936 10.4882 2.41545L1.91548 10.9928C1.64937 11.2605 1.5 11.6226 1.5 12C1.5 12.3774 1.64937 12.7395 1.91548 13.0072L10.4927 21.5846C10.7604 21.8506 11.1225 22 11.5 22C11.8775 22 12.2396 21.8506 12.5073 21.5846L21.0845 13.0072C21.3506 12.7395 21.5 12.3774 21.5 12C21.5 11.6226 21.3506 11.2605 21.0845 10.9928H21.0801ZM10.7811 7.71401C10.7811 7.52455 10.8564 7.34286 10.9904 7.2089C11.1244 7.07493 11.3061 6.99967 11.4955 6.99967C11.685 6.99967 11.8667 7.07493 12.0007 7.2089C12.1347 7.34286 12.2099 7.52455 12.2099 7.71401V12.7143C12.2099 12.9038 12.1347 13.0855 12.0007 13.2194C11.8667 13.3534 11.685 13.4287 11.4955 13.4287C11.3061 13.4287 11.1244 13.3534 10.9904 13.2194C10.8564 13.0855 10.7811 12.9038 10.7811 12.7143V7.71401ZM11.4955 17.0003C11.2836 17.0003 11.0764 16.9375 10.9002 16.8197C10.724 16.702 10.5866 16.5347 10.5055 16.3389C10.4244 16.1431 10.4032 15.9276 10.4445 15.7198C10.4859 15.5119 10.5879 15.321 10.7378 15.1712C10.8877 15.0213 11.0786 14.9193 11.2865 14.8779C11.4943 14.8366 11.7098 14.8578 11.9056 14.9389C12.1014 15.02 12.2688 15.1573 12.3865 15.3335C12.5043 15.5097 12.5671 15.7169 12.5671 15.9288C12.5671 16.213 12.4542 16.4855 12.2533 16.6865C12.0523 16.8874 11.7797 17.0003 11.4955 17.0003Z" fill="#ae2e24"/>
</svg>