<svg width="16" height="16" viewBox="0 0 16 16" fill="none" xmlns="http://www.w3.org/2000/svg">
<path fill-rule="evenodd" clip-rule="evenodd" d="M7.39288 3.45862C7.72558 2.84838 8.26848 2.84587 8.60247 3.45862L13.1959 11.8904C13.5286 12.5007 13.2249 13 12.5143 13H3.48102C2.77048 13 2.4655 12.5032 2.79949 11.8904L7.39288 3.45862ZM7.54175 9.56106C7.66267 9.67856 7.82667 9.74456 7.99768 9.74456C8.16868 9.74456 8.33268 9.67856 8.4536 9.56106C8.57452 9.44356 8.64245 9.2842 8.64245 9.11804V5.9854C8.64245 5.81924 8.57452 5.65988 8.4536 5.54238C8.33268 5.42488 8.16868 5.35887 7.99768 5.35887C7.82667 5.35887 7.66267 5.42488 7.54175 5.54238C7.42083 5.65988 7.3529 5.81924 7.3529 5.9854V9.11804C7.3529 9.2842 7.42083 9.44356 7.54175 9.56106ZM7.54175 11.4406C7.66267 11.5581 7.82667 11.6241 7.99768 11.6241C8.16868 11.6241 8.33268 11.5581 8.4536 11.4406C8.57452 11.3231 8.64245 11.1638 8.64245 10.9976C8.64245 10.8315 8.57452 10.6721 8.4536 10.5546C8.33268 10.4371 8.16868 10.3711 7.99768 10.3711C7.82667 10.3711 7.66267 10.4371 7.54175 10.5546C7.42083 10.6721 7.3529 10.8315 7.3529 10.9976C7.3529 11.1638 7.42083 11.3231 7.54175 11.4406Z" fill="#AE2E24"/>
</svg>
