<svg width="24" height="24" viewBox="0 0 24 24" fill="none" xmlns="http://www.w3.org/2000/svg">
<g clip-path="url(#clip0_397_20209)">
<path d="M2.64 0H21.36L21.765 0.09L22.005 0.165L22.23 0.255L22.575 0.435L22.815 0.6L23.025 0.78L23.28 1.035L23.475 1.29L23.595 1.485L23.745 1.77L23.865 2.085L23.97 2.505L24 2.67V19.215L23.88 19.32L19.2 24H2.685L2.145 23.88L1.92 23.805L1.65 23.685L1.41 23.55L1.23 23.43L1.065 23.295L0.87 23.115L0.765 23.01L0.63 22.845L0.495 22.665L0.36 22.44L0.21 22.125L0.105 21.81L0.03 21.51L0 21.345V2.625L0.12 2.115L0.24 1.8L0.39 1.5L0.555 1.245L0.72 1.035L1.05 0.705L1.305 0.51L1.53 0.375L1.77 0.255L1.98 0.165L2.355 0.06L2.64 0Z" fill="#60BD4F"/>
<path d="M6.66027 5.93994H9.45027L9.55527 6.07494L9.75027 6.40494L9.93027 6.70494L10.1853 7.12494L10.3053 7.33494L10.6653 7.93494L10.9203 8.35494L11.7303 9.70494L11.9853 10.1249L12.0303 10.2149L12.0753 10.1699L12.2703 9.82494L12.4053 9.59994L12.6153 9.23994L12.8103 8.90994L12.9603 8.65494L13.2153 8.21994L13.4253 7.85994L13.5603 7.63494L13.7703 7.27494L13.9203 7.01994L14.3403 6.29994L14.5503 5.95494L14.5803 5.93994H17.3103L17.2953 5.99994L17.1453 6.23994L16.8303 6.73494L16.6503 7.01994L16.5453 7.18494L16.4253 7.37994L16.2903 7.58994L16.1103 7.87494L15.9003 8.20494L15.6753 8.56494L15.4953 8.84994L15.3603 9.05994L15.2103 9.29994L14.8953 9.79494L14.7603 10.0049L14.5353 10.3649L14.3553 10.6499L14.2203 10.8599L14.0703 11.0999L13.8453 11.4449L13.7253 11.6399L13.5903 11.8649L13.6053 11.9399L13.8453 12.2999L14.2803 12.9449L14.7153 13.6049L15.1203 14.2049L15.3003 14.4749L15.5553 14.8499L15.9903 15.4949L16.1553 15.7499L16.6953 16.5599L17.0103 17.0249L17.4003 17.6099L17.5503 17.8199L17.5953 17.8799V17.9399L15.2103 17.9549H14.7903L14.6853 17.9249L14.5653 17.7599L14.4303 17.5349L14.2203 17.1899L14.0253 16.8749L13.8153 16.5299L13.5903 16.1699L13.3353 15.7499L13.1103 15.3899L12.8553 14.9699L12.4653 14.3399L12.2553 13.9949L11.9253 13.4549V13.4249L11.8653 13.4849L11.7753 13.6499L11.5953 13.9349L11.5053 14.0849L11.3853 14.2799L11.0553 14.8199L10.9353 15.0149L10.7403 15.3299L10.6203 15.5249L10.4103 15.8699L10.2603 16.1099L10.1403 16.3049L9.88527 16.7249L9.78027 16.8899L9.52527 17.3099L9.33027 17.6249L9.18027 17.8649L9.13527 17.9399H6.40527L6.42027 17.8649L6.58527 17.6099L6.82527 17.2349L7.05027 16.8899L7.20027 16.6499L7.42527 16.3049L7.60527 16.0199L7.75527 15.7949L7.90527 15.5549L8.10027 15.2549L8.23527 15.0449L8.44527 14.7149L8.59527 14.4899L8.71527 14.2949L8.88027 14.0399L9.10527 13.6949L9.25527 13.4549L9.42027 13.1999L9.64527 12.8549L9.79527 12.6149L10.2753 11.8799L10.3503 11.7449L10.2003 11.5049L10.0503 11.2799L9.90027 11.0399L9.67527 10.6949L9.49527 10.4099L9.30027 10.1099L9.12027 9.82494L8.88027 9.44994L8.65527 9.10494L8.47527 8.81994L8.26527 8.48994L8.07027 8.18994L7.86027 7.85994L7.63527 7.51494L7.42527 7.18494L7.18527 6.80994L7.02027 6.55494L6.78027 6.17994L6.64527 5.96994L6.66027 5.93994Z" fill="#FCFCFC"/>
<path d="M23.9252 19.2L23.9702 19.215L23.8802 19.32L19.2152 23.985H19.2002V22.815L19.2302 20.46L19.2452 20.25L19.2902 20.07L19.4102 19.83L19.5002 19.71L19.6352 19.56L19.8452 19.41L19.9952 19.335L20.2052 19.275L20.3252 19.26L22.6052 19.215L23.9252 19.2Z" fill="#B3E2A7"/>
</g>
<defs>
<clipPath id="clip0_397_20209">
<rect width="24" height="24" fill="white"/>
</clipPath>
</defs>
</svg>
