<svg xmlns="http://www.w3.org/2000/svg" width="18" height="17" viewBox="0 0 18 17" fill="none">
<path d="M15.1917 9.31675C15.225 9.05008 15.25 8.78341 15.25 8.50008C15.25 8.21675 15.225 7.95008 15.1917 7.68342L16.95 6.30841C17.1083 6.18341 17.15 5.95841 17.05 5.77508L15.3833 2.89175C15.3083 2.75841 15.1667 2.68341 15.0167 2.68341C14.9667 2.68341 14.9167 2.69175 14.875 2.70842L12.8 3.54175C12.3667 3.20842 11.9 2.93341 11.3917 2.72508L11.075 0.516748C11.05 0.316748 10.875 0.166748 10.6667 0.166748H7.33332C7.12499 0.166748 6.94999 0.316748 6.92499 0.516748L6.60832 2.72508C6.09999 2.93341 5.63332 3.21675 5.19999 3.54175L3.12499 2.70842C3.07499 2.69175 3.02499 2.68341 2.97499 2.68341C2.83332 2.68341 2.69166 2.75841 2.61666 2.89175L0.949988 5.77508C0.841655 5.95841 0.891655 6.18341 1.04999 6.30841L2.80832 7.68342C2.77499 7.95008 2.74999 8.22508 2.74999 8.50008C2.74999 8.77508 2.77499 9.05008 2.80832 9.31675L1.04999 10.6917C0.891655 10.8167 0.849988 11.0417 0.949988 11.2251L2.61666 14.1084C2.69166 14.2417 2.83332 14.3167 2.98332 14.3167C3.03332 14.3167 3.08332 14.3084 3.12499 14.2917L5.19999 13.4584C5.63332 13.7917 6.09999 14.0667 6.60832 14.2751L6.92499 16.4834C6.94999 16.6834 7.12499 16.8334 7.33332 16.8334H10.6667C10.875 16.8334 11.05 16.6834 11.075 16.4834L11.3917 14.2751C11.9 14.0667 12.3667 13.7834 12.8 13.4584L14.875 14.2917C14.925 14.3084 14.975 14.3167 15.025 14.3167C15.1667 14.3167 15.3083 14.2417 15.3833 14.1084L17.05 11.2251C17.15 11.0417 17.1083 10.8167 16.95 10.6917L15.1917 9.31675ZM13.5417 7.89175C13.575 8.15008 13.5833 8.32508 13.5833 8.50008C13.5833 8.67508 13.5667 8.85841 13.5417 9.10841L13.425 10.0501L14.1667 10.6334L15.0667 11.3334L14.4833 12.3417L13.425 11.9167L12.5583 11.5667L11.8083 12.1334C11.45 12.4001 11.1083 12.6001 10.7667 12.7417L9.88332 13.1001L9.74999 14.0417L9.58332 15.1667H8.41666L8.25832 14.0417L8.12499 13.1001L7.24165 12.7417C6.88332 12.5917 6.54999 12.4001 6.21665 12.1501L5.45832 11.5667L4.57499 11.9251L3.51665 12.3501L2.93332 11.3417L3.83332 10.6417L4.57499 10.0584L4.45832 9.11675C4.43332 8.85841 4.41665 8.66675 4.41665 8.50008C4.41665 8.33342 4.43332 8.14175 4.45832 7.89175L4.57499 6.95008L3.83332 6.36675L2.93332 5.66675L3.51665 4.65841L4.57499 5.08342L5.44165 5.43341L6.19165 4.86675C6.54999 4.60008 6.89165 4.40008 7.23332 4.25841L8.11665 3.90008L8.24999 2.95841L8.41666 1.83341H9.57499L9.73332 2.95841L9.86666 3.90008L10.75 4.25841C11.1083 4.40841 11.4417 4.60008 11.775 4.85008L12.5333 5.43341L13.4167 5.07508L14.475 4.65008L15.0583 5.65842L14.1667 6.36675L13.425 6.95008L13.5417 7.89175ZM8.99999 5.16675C7.15832 5.16675 5.66665 6.65841 5.66665 8.50008C5.66665 10.3417 7.15832 11.8334 8.99999 11.8334C10.8417 11.8334 12.3333 10.3417 12.3333 8.50008C12.3333 6.65841 10.8417 5.16675 8.99999 5.16675ZM8.99999 10.1667C8.08332 10.1667 7.33332 9.41675 7.33332 8.50008C7.33332 7.58342 8.08332 6.83342 8.99999 6.83342C9.91665 6.83342 10.6667 7.58342 10.6667 8.50008C10.6667 9.41675 9.91665 10.1667 8.99999 10.1667Z" fill="currentColor"/>
</svg>