<svg xmlns="http://www.w3.org/2000/svg" viewBox="0 0 48 48" width="24px" height="24px">
    <path fill="#4285F4"
        d="M24 9.5c3.09 0 5.41 1.34 6.65 2.45l4.88-4.88C32.32 4.91 28.47 3 24 3 14.61 3 7.02 9.79 5.11 18.41l5.86 4.54C12.68 15.29 17.9 9.5 24 9.5z" />
    <path fill="#34A853"
        d="M43.63 24.55c0-.7-.06-1.38-.16-2.04H24v7.15h11.06c-.46 2.35-1.82 4.34-3.86 5.67l5.96 4.62c3.48-3.2 5.47-7.92 5.47-13.4z" />
    <path fill="#FBBC05"
        d="M12.28 26.41c-.44-1.28-.69-2.64-.69-4.04s.25-2.76.69-4.04l-5.86-4.54C4.62 17.05 3.5 20.42 3.5 24s1.12 6.95 2.92 9.61l5.86-4.54z" />
    <path fill="#EA4335"
        d="M24 44c5.72 0 10.52-1.9 14.03-5.14l-5.96-4.62c-2.1 1.42-4.8 2.26-8.07 2.26-6.1 0-11.32-4.79-12.43-11.11l-5.86 4.54C7.02 38.21 14.61 44 24 44z" />
</svg>