<svg width="24" height="24" viewBox="0 0 24 24" fill="none" xmlns="http://www.w3.org/2000/svg">
<g clip-path="url(#clip0_397_20213)">
<path d="M2.46 0H21.555L21.93 0.105L22.185 0.21L22.44 0.345L22.62 0.48L22.77 0.6L22.965 0.78L23.13 0.975L23.295 1.2L23.415 1.395L23.565 1.665L23.7 1.98L23.82 2.34L23.91 2.715L24 3.24V21.555L23.895 22.02L23.79 22.32L23.67 22.56L23.565 22.74L23.415 22.95L23.235 23.16L23.115 23.28L22.95 23.415L22.74 23.565L22.53 23.685L22.275 23.805L21.96 23.91L21.57 24H2.43L1.95 23.88L1.65 23.775L1.35 23.625L1.17 23.505L0.975 23.355L0.75 23.145L0.6 22.98L0.435 22.755L0.3 22.515L0.18 22.26L0.105 22.035L0.03 21.735L0 21.585V20.91L0.015 20.88L0 20.76V3.165L0.135 2.49L0.255 2.1L0.375 1.8L0.495 1.56L0.615 1.335L0.75 1.14L0.885 0.96L1.05 0.765L1.17 0.645L1.335 0.51L1.59 0.33L1.83 0.195L2.1 0.09L2.46 0Z" fill="#454D58"/>
<path d="M15.3452 11.145H15.6002L15.8402 11.19L16.0202 11.235L16.2152 11.31L16.4552 11.43L16.6202 11.55L16.8002 11.715L23.8652 18.78L24.0002 18.885V21.555L23.8952 22.02L23.7902 22.32L23.6702 22.56L23.5652 22.74L23.4152 22.95L23.2352 23.16L23.1152 23.28L22.9502 23.415L22.7402 23.565L22.5302 23.685L22.2752 23.805L21.9602 23.91L21.5702 24H16.9952L16.8752 23.85L10.0352 17.01L9.9152 16.905L9.4502 16.44H9.4952L9.5252 16.38L10.0352 15.87L10.1552 15.765L11.5802 14.34L11.6552 14.25L11.7752 14.145L13.6352 12.285L13.6502 12.255H13.6802V12.225H13.7102L13.7402 12.165L13.9352 11.97H13.9652L13.9952 11.91L14.1302 11.775L14.2502 11.67L14.4002 11.535L14.6252 11.385L14.8352 11.28L15.0602 11.205L15.2402 11.16L15.3452 11.145Z" fill="#379812"/>
<path d="M6.795 14.7H7.185L7.47 14.76L7.77 14.88L7.935 14.97L8.1 15.09L8.25 15.225L10.005 16.98L10.125 17.085L16.935 23.895L16.995 23.97V24H2.43L1.95 23.88L1.65 23.775L1.35 23.625L1.17 23.505L0.975 23.355L0.75 23.145L0.6 22.98L0.435 22.755L0.3 22.515L0.18 22.26L0.105 22.035L0.03 21.735L0 21.585V20.91L0.21 20.73L2.475 18.465L2.595 18.36L5.76 15.195L5.88 15.09L6.09 14.94L6.375 14.805L6.63 14.73L6.795 14.7Z" fill="#6CBE54"/>
<path d="M6.2252 4.30493H6.4652L6.7502 4.33493L7.0502 4.39493L7.4102 4.51493L7.7252 4.67993L7.9802 4.85993L8.1902 5.03993L8.3102 5.15993L8.5052 5.41493L8.6102 5.57993L8.7602 5.86493L8.8652 6.17993L8.9102 6.35993L8.9552 6.67493V7.15493L8.9102 7.42493L8.8502 7.64993L8.7602 7.88993L8.6402 8.14493L8.4602 8.41493L8.3252 8.57993L8.2052 8.71493L8.0852 8.81993L7.8752 8.98493L7.6802 9.10493L7.4402 9.22493L7.1552 9.32993L6.7802 9.41993L6.5552 9.44993H6.1952L5.8502 9.38993L5.5502 9.29993L5.3552 9.22493L5.1152 9.10493L4.8752 8.95493L4.6802 8.78993L4.5602 8.68493L4.4102 8.51993L4.2602 8.30993L4.1402 8.11493L4.0052 7.81493L3.9152 7.52993L3.8552 7.22993L3.8252 6.95993V6.77993L3.8702 6.40493L3.9752 6.02993L4.0952 5.74493L4.2002 5.54993L4.3202 5.36993L4.5302 5.11493L4.6802 4.96493L4.8752 4.81493L5.0252 4.70993L5.2652 4.57493L5.5352 4.45493L5.8052 4.37993L6.0902 4.31993L6.2252 4.30493Z" fill="#FE9D2F"/>
</g>
<defs>
<clipPath id="clip0_397_20213">
<rect width="24" height="24" fill="white"/>
</clipPath>
</defs>
</svg>
