<svg width="16" height="16" viewBox="0 0 18 18" fill="none" xmlns="http://www.w3.org/2000/svg">
<path d="M8.99199 0.666656C4.39199 0.666656 0.666992 4.39999 0.666992 8.99999C0.666992 13.6 4.39199 17.3333 8.99199 17.3333C13.6003 17.3333 17.3337 13.6 17.3337 8.99999C17.3337 4.39999 13.6003 0.666656 8.99199 0.666656ZM12.3337 12.3333C12.0087 12.6583 11.4837 12.6583 11.1587 12.3333L8.41699 9.59165C8.25866 9.43332 8.16699 9.22499 8.16699 8.99999V5.66666C8.16699 5.20832 8.54199 4.83332 9.00032 4.83332C9.45866 4.83332 9.83366 5.20832 9.83366 5.66666V8.65832L12.3337 11.1583C12.6587 11.4833 12.6587 12.0083 12.3337 12.3333Z" fill="#C38717"/>
</svg>
