<svg width="20" height="20" viewBox="0 0 20 20" fill="none" xmlns="http://www.w3.org/2000/svg">
<path d="M6.65202 16.6668C6.27962 16.6668 5.96083 16.5425 5.69564 16.2938C5.43045 16.0451 5.29785 15.7462 5.29785 15.397V9.04778C5.29785 8.69858 5.43045 8.39963 5.69564 8.15096C5.96083 7.90228 6.27962 7.77794 6.65202 7.77794H7.3291V6.5081C7.3291 5.62979 7.65918 4.88112 8.31934 4.26207C8.97949 3.64302 9.77789 3.3335 10.7145 3.3335C11.6511 3.3335 12.4495 3.64302 13.1097 4.26207C13.7699 4.88112 14.0999 5.62979 14.0999 6.5081V7.77794H14.777C15.1494 7.77794 15.4682 7.90228 15.7334 8.15096C15.9986 8.39963 16.1312 8.69858 16.1312 9.04778V15.397C16.1312 15.7462 15.9986 16.0451 15.7334 16.2938C15.4682 16.5425 15.1494 16.6668 14.777 16.6668H6.65202ZM10.7145 13.4922C11.0869 13.4922 11.4057 13.3679 11.6709 13.1192C11.9361 12.8705 12.0687 12.5716 12.0687 12.2224C12.0687 11.8732 11.9361 11.5742 11.6709 11.3256C11.4057 11.0769 11.0869 10.9525 10.7145 10.9525C10.3421 10.9525 10.0233 11.0769 9.75814 11.3256C9.49295 11.5742 9.36035 11.8732 9.36035 12.2224C9.36035 12.5716 9.49295 12.8705 9.75814 13.1192C10.0233 13.3679 10.3421 13.4922 10.7145 13.4922ZM8.68327 7.77794H12.7458V6.5081C12.7458 5.979 12.5483 5.52926 12.1533 5.15889C11.7584 4.78852 11.2788 4.60334 10.7145 4.60334C10.1503 4.60334 9.67068 4.78852 9.27572 5.15889C8.88075 5.52926 8.68327 5.979 8.68327 6.5081V7.77794Z" fill="#44546F"/>
</svg>
