<svg
    width="14"
    height="14"
    viewBox="0 0 14 14"
    fill="none"
    xmlns="http://www.w3.org/2000/svg"
>
    <path
        fillRule="evenodd"
        clipRule="evenodd"
        d="M13.002 5.66658C13.3702 5.66658 13.6687 5.3681 13.6687 4.99992V0.999919C13.6687 0.631732 13.3702 0.333252 13.002 0.333252H8.99961C8.63141 0.333252 8.33294 0.631725 8.33294 0.999919C8.33294 1.36811 8.63141 1.66659 8.99961 1.66659H11.3927L5.65489 7.40432C5.39455 7.66465 5.39455 8.08678 5.65489 8.34712C5.91527 8.60752 6.33734 8.60752 6.59767 8.34712L12.3353 2.6095V4.99992C12.3353 5.3681 12.6338 5.66658 13.002 5.66658ZM2.33301 2.33325C1.22844 2.33325 0.333008 3.22869 0.333008 4.33325V11.6666C0.333008 12.7712 1.22844 13.6666 2.33301 13.6666H9.66634C10.7709 13.6666 11.6663 12.7712 11.6663 11.6666V7.66658C11.6663 7.29838 11.3679 6.99992 10.9997 6.99992C10.6315 6.99992 10.333 7.29838 10.333 7.66658V11.6666C10.333 12.0348 10.0345 12.3333 9.66634 12.3333H2.33301C1.96482 12.3333 1.66634 12.0348 1.66634 11.6666V4.33325C1.66634 3.96507 1.96482 3.66658 2.33301 3.66658H6.33301C6.70121 3.66658 6.99967 3.36811 6.99967 2.99992C6.99967 2.63173 6.70121 2.33325 6.33301 2.33325H2.33301Z"
        fill="#0055CC"
    />
</svg>