<svg width="24" height="24" viewBox="0 0 24 24" fill="none" xmlns="http://www.w3.org/2000/svg">
    <path
        d="M15.7279 12.6466L9.57761 18.7322C9.4043 18.9037 9.16924 19 8.92414 19C8.67904 19 8.44399 18.9037 8.27067 18.7322C8.09736 18.5607 8 18.3281 8 18.0856C8 17.8431 8.09736 17.6105 8.27067 17.439L13.7683 12.0008L8.27221 6.56101C8.1864 6.4761 8.11833 6.3753 8.07188 6.26435C8.02544 6.15341 8.00154 6.0345 8.00154 5.91442C8.00154 5.79434 8.02544 5.67543 8.07188 5.56449C8.11833 5.45354 8.1864 5.35274 8.27221 5.26783C8.35803 5.18292 8.4599 5.11556 8.57203 5.06961C8.68415 5.02365 8.80432 5 8.92568 5C9.04704 5 9.16721 5.02365 9.27933 5.06961C9.39146 5.11556 9.49333 5.18292 9.57915 5.26783L15.7294 11.3534C15.8153 11.4383 15.8835 11.5392 15.9299 11.6502C15.9763 11.7612 16.0001 11.8802 16 12.0003C15.9999 12.1205 15.9757 12.2394 15.9291 12.3503C15.8824 12.4612 15.814 12.5619 15.7279 12.6466Z"
        fill="currentColor" />
</svg>