<svg width="16" height="17" viewBox="0 0 16 17" fill="none" xmlns="http://www.w3.org/2000/svg">
<path fill-rule="evenodd" clip-rule="evenodd" d="M9.10867 13.5413C10.4696 14.1804 11.8667 14.5 13.3 14.5C13.5 14.5 13.6667 14.4333 13.8 14.3C13.9333 14.1667 14 14 14 13.8V11.1C14 10.9444 13.95 10.8082 13.85 10.6913C13.75 10.5749 13.6222 10.5 13.4667 10.4667L11.1667 10C11.0111 9.97778 10.8529 9.99156 10.692 10.0413C10.5307 10.0916 10.4 10.1667 10.3 10.2667L8.73333 11.8333C7.88889 11.3222 7.11667 10.7167 6.41667 10.0167C5.71667 9.31667 5.13333 8.56667 4.66667 7.76667L6.26667 6.13333C6.36667 6.03333 6.43067 5.91933 6.45867 5.79133C6.48622 5.66378 6.48889 5.52222 6.46667 5.36667L6.03333 3.03333C6.01111 2.87778 5.93889 2.75 5.81667 2.65C5.69444 2.55 5.55556 2.5 5.4 2.5H2.7C2.5 2.5 2.33333 2.56667 2.2 2.7C2.06667 2.83333 2 3 2 3.2C2 4.63333 2.31956 6.03044 2.95867 7.39133C3.59733 8.75267 4.44178 9.95822 5.492 11.008C6.54178 12.0582 7.74733 12.9027 9.10867 13.5413ZM13.6579 2.70871C13.5303 2.58071 13.3721 2.51671 13.1832 2.51671L10.5165 2.51671C10.3276 2.51671 10.1692 2.58071 10.0412 2.70871C9.91363 2.83626 9.84985 2.99449 9.84985 3.18337C9.84985 3.37226 9.91363 3.53071 10.0412 3.65871C10.1692 3.78626 10.3276 3.85004 10.5165 3.85004H11.5832L8.71652 6.71671C8.5943 6.83893 8.53319 6.99448 8.53319 7.18337C8.53319 7.37226 8.5943 7.52782 8.71652 7.65004C8.83874 7.77226 8.9943 7.83337 9.18319 7.83337C9.37208 7.83337 9.52763 7.77226 9.64985 7.65004L12.5165 4.78337V5.85004C12.5165 6.03893 12.5803 6.19737 12.7079 6.32537C12.8359 6.45293 12.9943 6.51671 13.1832 6.51671C13.3721 6.51671 13.5303 6.45293 13.6579 6.32537C13.7859 6.19737 13.8499 6.03893 13.8499 5.85004V3.18337C13.8499 2.99449 13.7859 2.83626 13.6579 2.70871Z" fill="#626F86"/>
</svg>
