<svg width="20" height="20" viewBox="0 0 20 20" fill="none" xmlns="http://www.w3.org/2000/svg">
<path d="M5.83464 7.50033C6.98523 7.50033 7.91797 6.56758 7.91797 5.41699C7.91797 4.2664 6.98523 3.33366 5.83464 3.33366C4.68404 3.33366 3.7513 4.2664 3.7513 5.41699C3.7513 6.56758 4.68404 7.50033 5.83464 7.50033ZM5.83464 9.16699C3.76357 9.16699 2.08464 7.48806 2.08464 5.41699C2.08464 3.34593 3.76357 1.66699 5.83464 1.66699C7.9057 1.66699 9.58464 3.34593 9.58464 5.41699C9.58464 7.48806 7.9057 9.16699 5.83464 9.16699ZM14.5846 10.8337C15.5051 10.8337 16.2513 10.0875 16.2513 9.16699C16.2513 8.24652 15.5051 7.50033 14.5846 7.50033C13.6641 7.50033 12.918 8.24652 12.918 9.16699C12.918 10.0875 13.6641 10.8337 14.5846 10.8337ZM14.5846 12.5003C12.7437 12.5003 11.2513 11.0079 11.2513 9.16699C11.2513 7.32604 12.7437 5.83366 14.5846 5.83366C16.4256 5.83366 17.918 7.32604 17.918 9.16699C17.918 11.0079 16.4256 12.5003 14.5846 12.5003ZM16.668 17.5003V17.0837C16.668 15.9331 15.7352 15.0003 14.5846 15.0003C13.4341 15.0003 12.5013 15.9331 12.5013 17.0837V17.5003H10.8346V17.0837C10.8346 15.0126 12.5136 13.3337 14.5846 13.3337C16.6557 13.3337 18.3346 15.0126 18.3346 17.0837V17.5003H16.668ZM8.33464 17.5003V14.167C8.33464 12.7862 7.21534 11.667 5.83464 11.667C4.45393 11.667 3.33464 12.7862 3.33464 14.167V17.5003H1.66797V14.167C1.66797 11.8658 3.53345 10.0003 5.83464 10.0003C8.13582 10.0003 10.0013 11.8658 10.0013 14.167V17.5003H8.33464Z" fill="currentColor"/>
</svg>
