<svg width="24" height="24" viewBox="0 0 24 24" fill="none" xmlns="http://www.w3.org/2000/svg">
<g clip-path="url(#clip0_397_20200)">
<path d="M2.64 0H21.36L21.765 0.09L22.005 0.165L22.23 0.255L22.575 0.435L22.815 0.6L23.025 0.78L23.28 1.035L23.475 1.29L23.595 1.485L23.745 1.77L23.865 2.085L23.97 2.505L24 2.67V19.215L23.88 19.32L19.2 24H2.685L2.145 23.88L1.92 23.805L1.65 23.685L1.41 23.55L1.23 23.43L1.065 23.295L0.87 23.115L0.765 23.01L0.63 22.845L0.495 22.665L0.36 22.44L0.21 22.125L0.105 21.81L0.03 21.51L0 21.345V2.625L0.12 2.115L0.24 1.8L0.39 1.5L0.555 1.245L0.72 1.035L1.05 0.705L1.305 0.51L1.53 0.375L1.77 0.255L1.98 0.165L2.355 0.06L2.64 0Z" fill="#EC5C44"/>
<path d="M9.89965 8.61011H11.5646L12.1946 8.62511L12.5696 8.65511L12.9596 8.71511L13.2746 8.79011L13.6346 8.91011L13.9346 9.04511L14.1896 9.18011L14.3696 9.30011L14.5646 9.45011L14.7146 9.58511L14.8346 9.69011L14.9996 9.87011L15.1796 10.1101L15.2996 10.3051L15.4196 10.5301L15.5396 10.8301L15.6296 11.1001L15.7196 11.5051L15.7646 11.8201L15.7796 12.0001V12.8401L15.7196 13.3201L15.6296 13.7401L15.4946 14.1451L15.3146 14.5201L15.1796 14.7451L15.0146 14.9701L14.9846 15.0151H14.9546L14.9246 15.0751L14.7596 15.2551L14.5646 15.4351L14.2946 15.6301L14.0696 15.7651L13.8446 15.8851L13.4996 16.0201L13.1096 16.1401L12.7346 16.2151L12.4646 16.2601L11.9396 16.3051L9.40465 16.3201L9.38965 16.2601V9.36011L9.40465 8.62511L9.89965 8.61011Z" fill="#FEFEFD"/>
<path d="M3.03035 8.61011H4.75535L5.41535 8.62511L5.77535 8.65511L6.13535 8.71511L6.45035 8.80511L6.67535 8.89511L6.91535 9.01511L7.14035 9.16511L7.33535 9.33011L7.44035 9.43511L7.60535 9.66011L7.74035 9.91511L7.84535 10.2301L7.90535 10.5001L7.93535 10.8301V11.2201L7.90535 11.5201L7.84535 11.8201L7.74035 12.1201L7.62035 12.3601L7.48535 12.5701L7.32035 12.7651L7.18535 12.9001L6.99035 13.0501L6.67535 13.2301L6.51035 13.3051L6.10535 13.4401L5.82035 13.5001L5.50535 13.5451L5.31035 13.5601L4.26035 13.5751L4.24535 16.3051L3.18035 16.3201H2.62535L2.61035 16.2601V8.62511L3.03035 8.61011Z" fill="#FEFEFD"/>
<path d="M17.7298 8.61011H21.3598L21.8098 8.62511V9.94511L19.0048 9.96011V11.9401H21.3898L21.5998 11.9551L21.6148 12.3901V13.2301L21.5998 13.2751H19.0048V16.3051L18.2248 16.3201H17.4148L17.3998 16.3051L17.3848 15.9901V8.64011L17.3998 8.62511L17.7298 8.61011Z" fill="#FEFEFD"/>
<path d="M11.0254 9.94507H12.2554L12.6154 10.0051L12.8854 10.0951L13.1404 10.2151L13.3204 10.3351L13.4704 10.4701L13.6204 10.6201L13.7554 10.8301L13.8754 11.0551L13.9954 11.4151L14.0704 11.7901L14.1004 12.1051V12.7501L14.0704 13.0801L13.9954 13.4551L13.8904 13.7551L13.7704 13.9951L13.6204 14.2351L13.4104 14.4601L13.1854 14.6251L12.9004 14.7751L12.6454 14.8651L12.3304 14.9401L11.8954 14.9851H11.0404L11.0254 14.9701V9.94507Z" fill="#EC5C44"/>
<path d="M23.1452 19.2H24.0002L19.2152 23.985H19.2002V23.025L19.2152 21.375L19.2302 20.4L19.2752 20.145L19.3502 19.935L19.4552 19.77L19.6202 19.575L19.8002 19.44L20.0102 19.335L20.2502 19.275L20.4152 19.26L22.5302 19.215L23.1452 19.2Z" fill="#FEA89C"/>
<path d="M4.24512 9.94507H5.31012L5.61012 10.0051L5.85012 10.1101L6.01512 10.2301L6.12012 10.3501L6.22512 10.5601L6.28512 10.7851L6.30012 10.8601V11.2501L6.25512 11.4901L6.13512 11.7301L6.01512 11.8801L5.85012 12.0151L5.59512 12.1351L5.38512 12.1951L5.08512 12.2401L4.80012 12.2551H4.26012L4.24512 12.2401V9.94507Z" fill="#EC5E47"/>
<path d="M11.0254 9.94507H12.2554L12.6154 10.0051L12.8854 10.0951L13.1404 10.2151L13.1554 10.2451L13.0654 10.2151L12.7954 10.0951L12.6004 10.0351L12.3154 9.99007L12.1654 9.97507H11.1754L11.0404 9.96007L11.0554 10.5601V14.9551L11.9704 14.9401L12.2854 14.9101L12.6304 14.8351L12.9154 14.7301L13.0954 14.6401L13.1254 14.6551L12.9004 14.7751L12.6454 14.8651L12.3304 14.9401L11.8954 14.9851H11.0404L11.0254 14.9701V9.94507Z" fill="#FEA89C"/>
</g>
<defs>
<clipPath id="clip0_397_20200">
<rect width="24" height="24" fill="white"/>
</clipPath>
</defs>
</svg>
