<svg width="20" height="20" viewBox="0 0 20 20" fill="none" xmlns="http://www.w3.org/2000/svg">
<path d="M10.7079 3.3335C7.02785 3.3335 4.04785 6.32016 4.04785 10.0002C4.04785 13.6802 7.02785 16.6668 10.7079 16.6668C14.3945 16.6668 17.3812 13.6802 17.3812 10.0002C17.3812 6.32016 14.3945 3.3335 10.7079 3.3335ZM13.3812 12.6668C13.1212 12.9268 12.7012 12.9268 12.4412 12.6668L10.2479 10.4735C10.1212 10.3468 10.0479 10.1802 10.0479 10.0002V7.3335C10.0479 6.96683 10.3479 6.66683 10.7145 6.66683C11.0812 6.66683 11.3812 6.96683 11.3812 7.3335V9.72683L13.3812 11.7268C13.6412 11.9868 13.6412 12.4068 13.3812 12.6668Z" fill="#CF9F02"/>
</svg>
