<svg width="24" height="24" viewBox="0 0 24 24" fill="none" xmlns="http://www.w3.org/2000/svg">
<g clip-path="url(#clip0_397_20224)">
<path d="M2.64 0H21.36L21.765 0.09L22.005 0.165L22.23 0.255L22.575 0.435L22.815 0.6L23.025 0.78L23.28 1.035L23.475 1.29L23.595 1.485L23.745 1.77L23.865 2.085L23.97 2.505L24 2.67V19.215L23.88 19.32L19.2 24H2.685L2.145 23.88L1.92 23.805L1.65 23.685L1.41 23.55L1.23 23.43L1.065 23.295L0.87 23.115L0.765 23.01L0.63 22.845L0.495 22.665L0.36 22.44L0.21 22.125L0.105 21.81L0.03 21.51L0 21.345V2.625L0.12 2.115L0.24 1.8L0.39 1.5L0.555 1.245L0.72 1.035L1.05 0.705L1.305 0.51L1.53 0.375L1.77 0.255L1.98 0.165L2.355 0.06L2.64 0Z" fill="#FE9E2C"/>
<path d="M8.49008 5.93994H12.3751L12.8251 5.96994L13.3201 6.02994L13.7701 6.11994L14.1601 6.22494L14.4751 6.34494L14.8501 6.52494L15.1201 6.68994L15.3601 6.86994L15.5101 7.00494L15.6301 7.10994L15.7801 7.27494L15.9301 7.46994L16.0501 7.66494L16.2151 7.97994L16.3351 8.30994L16.4251 8.65494L16.5001 9.10494L16.5301 9.56994V9.85494L16.5001 10.2749L16.4401 10.6649L16.3351 11.0849L16.2151 11.4149L16.0351 11.7899L15.8701 12.0449L15.7051 12.2549L15.5401 12.4349L15.3601 12.6149L15.1501 12.7799L14.9101 12.9449L14.6551 13.0949L14.3101 13.2599L13.9951 13.3799L13.6351 13.4849L13.2151 13.5749L12.7951 13.6349L12.4951 13.6649L12.2251 13.6799H10.7701L10.7851 14.3549L10.8001 17.9249L10.7851 17.9399L8.23508 17.9549L8.22008 17.9399L8.20508 17.1449V6.83994L8.22008 5.95494L8.49008 5.93994Z" fill="#FDFCFC"/>
<path d="M23.9398 19.2L23.9998 19.215L23.8798 19.32L19.2298 23.97H19.2148V22.395L19.2298 21.015L19.2448 20.475L19.2598 20.265L19.3348 19.995L19.4248 19.83L19.5448 19.68L19.6948 19.53L19.9048 19.395L20.1148 19.32L20.2348 19.29L20.3848 19.275L22.9948 19.215L23.9398 19.2Z" fill="#FDCD9B"/>
<path d="M10.7695 8.04004H12.2995L12.6295 8.08504L12.8695 8.14504L13.0795 8.22004L13.3345 8.35504L13.4695 8.46004L13.6045 8.59504L13.7395 8.80504L13.8145 8.97004L13.8745 9.16504L13.9195 9.36004L13.9495 9.63004V9.96004L13.9045 10.26L13.8295 10.515L13.7095 10.755L13.5895 10.92L13.4395 11.085L13.2295 11.235L12.9895 11.355L12.8095 11.43L12.5245 11.505L12.1345 11.565L11.9545 11.58H10.7845L10.7695 8.76004V8.04004Z" fill="#FE9E2C"/>
</g>
<defs>
<clipPath id="clip0_397_20224">
<rect width="24" height="24" fill="white"/>
</clipPath>
</defs>
</svg>
