<svg width="20" height="20" viewBox="0 0 20 20" fill="none" xmlns="http://www.w3.org/2000/svg">
<path d="M10.0013 18.3332C5.39893 18.3332 1.66797 14.6022 1.66797 9.99984C1.66797 5.39746 5.39893 1.6665 10.0013 1.6665C14.6036 1.6665 18.3346 5.39746 18.3346 9.99984C18.3346 14.6022 14.6036 18.3332 10.0013 18.3332ZM10.0013 16.6665C13.6832 16.6665 16.668 13.6818 16.668 9.99984C16.668 6.31794 13.6832 3.33317 10.0013 3.33317C6.3194 3.33317 3.33464 6.31794 3.33464 9.99984C3.33464 13.6818 6.3194 16.6665 10.0013 16.6665ZM9.16797 12.4998H10.8346V14.1665H9.16797V12.4998ZM10.8346 11.1291V11.6665H9.16797V10.4165C9.16797 9.95625 9.54105 9.58317 10.0013 9.58317C10.6916 9.58317 11.2513 9.0235 11.2513 8.33317C11.2513 7.64281 10.6916 7.08317 10.0013 7.08317C9.39489 7.08317 8.8893 7.51503 8.7753 8.08798L7.14073 7.76105C7.40661 6.42416 8.5863 5.4165 10.0013 5.4165C11.6121 5.4165 12.918 6.72234 12.918 8.33317C12.918 9.65442 12.0394 10.7705 10.8346 11.1291Z" fill="currentColor"/>
</svg>
