<svg width="18" height="18" viewBox="0 0 18 18" fill="none" xmlns="http://www.w3.org/2000/svg">
<path d="M9.0013 13.167C10.1541 13.167 11.1367 12.7607 11.9492 11.9482C12.7617 11.1357 13.168 10.1531 13.168 9.00033C13.168 7.84755 12.7617 6.86491 11.9492 6.05241C11.1367 5.23991 10.1541 4.83366 9.0013 4.83366C7.84852 4.83366 6.86589 5.23991 6.05339 6.05241C5.24089 6.86491 4.83464 7.84755 4.83464 9.00033C4.83464 10.1531 5.24089 11.1357 6.05339 11.9482C6.86589 12.7607 7.84852 13.167 9.0013 13.167ZM9.0013 17.3337C7.84852 17.3337 6.76519 17.1149 5.7513 16.6774C4.73741 16.2399 3.85547 15.6462 3.10547 14.8962C2.35547 14.1462 1.76172 13.2642 1.32422 12.2503C0.886719 11.2364 0.667969 10.1531 0.667969 9.00033C0.667969 7.84755 0.886719 6.76421 1.32422 5.75033C1.76172 4.73644 2.35547 3.85449 3.10547 3.10449C3.85547 2.35449 4.73741 1.76074 5.7513 1.32324C6.76519 0.885742 7.84852 0.666992 9.0013 0.666992C10.1541 0.666992 11.2374 0.885742 12.2513 1.32324C13.2652 1.76074 14.1471 2.35449 14.8971 3.10449C15.6471 3.85449 16.2409 4.73644 16.6784 5.75033C17.1159 6.76421 17.3346 7.84755 17.3346 9.00033C17.3346 10.1531 17.1159 11.2364 16.6784 12.2503C16.2409 13.2642 15.6471 14.1462 14.8971 14.8962C14.1471 15.6462 13.2652 16.2399 12.2513 16.6774C11.2374 17.1149 10.1541 17.3337 9.0013 17.3337ZM9.0013 15.667C10.8624 15.667 12.4388 15.0212 13.7305 13.7295C15.0221 12.4378 15.668 10.8614 15.668 9.00033C15.668 7.13921 15.0221 5.56283 13.7305 4.27116C12.4388 2.97949 10.8624 2.33366 9.0013 2.33366C7.14019 2.33366 5.5638 2.97949 4.27214 4.27116C2.98047 5.56283 2.33464 7.13921 2.33464 9.00033C2.33464 10.8614 2.98047 12.4378 4.27214 13.7295C5.5638 15.0212 7.14019 15.667 9.0013 15.667Z" fill="#44546F"/>
</svg>
