<svg xmlns="http://www.w3.org/2000/svg" width="13" height="14" viewBox="0 0 13 14">
<path d="M10.332 13.6693C9.77648 13.6693 9.30425 13.4748 8.91537 13.0859C8.52648 12.697 8.33203 12.2248 8.33203 11.6693C8.33203 11.6026 8.3487 11.447 8.38203 11.2026L3.6987 8.46927C3.52092 8.63594 3.31536 8.76649 3.08203 8.86094C2.8487 8.95538 2.5987 9.0026 2.33203 9.0026C1.77648 9.0026 1.30425 8.80816 0.915365 8.41927C0.526476 8.03038 0.332031 7.55816 0.332031 7.0026C0.332031 6.44705 0.526476 5.97483 0.915365 5.58594C1.30425 5.19705 1.77648 5.0026 2.33203 5.0026C2.5987 5.0026 2.8487 5.04983 3.08203 5.14427C3.31536 5.23872 3.52092 5.36927 3.6987 5.53594L8.38203 2.8026C8.35981 2.72483 8.34592 2.64983 8.34037 2.5776C8.33481 2.50538 8.33203 2.42483 8.33203 2.33594C8.33203 1.78038 8.52648 1.30816 8.91537 0.919271C9.30425 0.530382 9.77648 0.335938 10.332 0.335938C10.8876 0.335938 11.3598 0.530382 11.7487 0.919271C12.1376 1.30816 12.332 1.78038 12.332 2.33594C12.332 2.89149 12.1376 3.36372 11.7487 3.7526C11.3598 4.14149 10.8876 4.33594 10.332 4.33594C10.0654 4.33594 9.81536 4.28872 9.58203 4.19427C9.3487 4.09983 9.14314 3.96927 8.96537 3.8026L4.28203 6.53594C4.30425 6.61371 4.31814 6.68871 4.3237 6.76094C4.32925 6.83316 4.33203 6.91371 4.33203 7.0026C4.33203 7.09149 4.32925 7.17205 4.3237 7.24427C4.31814 7.31649 4.30425 7.39149 4.28203 7.46927L8.96537 10.2026C9.14314 10.0359 9.3487 9.90538 9.58203 9.81094C9.81536 9.71649 10.0654 9.66927 10.332 9.66927C10.8876 9.66927 11.3598 9.86372 11.7487 10.2526C12.1376 10.6415 12.332 11.1137 12.332 11.6693C12.332 12.2248 12.1376 12.697 11.7487 13.0859C11.3598 13.4748 10.8876 13.6693 10.332 13.6693ZM10.332 12.3359C10.5209 12.3359 10.6793 12.272 10.807 12.1443C10.9348 12.0165 10.9987 11.8582 10.9987 11.6693C10.9987 11.4804 10.9348 11.322 10.807 11.1943C10.6793 11.0665 10.5209 11.0026 10.332 11.0026C10.1431 11.0026 9.98481 11.0665 9.85703 11.1943C9.72925 11.322 9.66537 11.4804 9.66537 11.6693C9.66537 11.8582 9.72925 12.0165 9.85703 12.1443C9.98481 12.272 10.1431 12.3359 10.332 12.3359ZM2.33203 7.66927C2.52092 7.66927 2.67925 7.60538 2.80703 7.4776C2.93481 7.34983 2.9987 7.19149 2.9987 7.0026C2.9987 6.81371 2.93481 6.65538 2.80703 6.5276C2.67925 6.39983 2.52092 6.33594 2.33203 6.33594C2.14314 6.33594 1.98481 6.39983 1.85703 6.5276C1.72925 6.65538 1.66536 6.81371 1.66536 7.0026C1.66536 7.19149 1.72925 7.34983 1.85703 7.4776C1.98481 7.60538 2.14314 7.66927 2.33203 7.66927ZM10.332 3.0026C10.5209 3.0026 10.6793 2.93872 10.807 2.81094C10.9348 2.68316 10.9987 2.52483 10.9987 2.33594C10.9987 2.14705 10.9348 1.98872 10.807 1.86094C10.6793 1.73316 10.5209 1.66927 10.332 1.66927C10.1431 1.66927 9.98481 1.73316 9.85703 1.86094C9.72925 1.98872 9.66537 2.14705 9.66537 2.33594C9.66537 2.52483 9.72925 2.68316 9.85703 2.81094C9.98481 2.93872 10.1431 3.0026 10.332 3.0026Z"/>
</svg>