<svg width="20" height="20" viewBox="0 0 20 20" fill="none" xmlns="http://www.w3.org/2000/svg">
    <g>
        <path fill="#36C5F0"
            d="M5.348 11.748a1.9 1.9 0 1 1-1.9-1.9h1.9v1.9Zm0.95 0a1.9 1.9 0 1 1 3.8 0v4.75a1.9 1.9 0 1 1-3.8 0v-4.75Z" />
        <path fill="#2EB67D"
            d="M8.197 5.348A1.9 1.9 0 1 1 10.097 3.45v1.9H8.197Zm0 0.95a1.9 1.9 0 1 1 0 3.8H3.45a1.9 1.9 0 1 1 0-3.8h4.747Z" />
        <path fill="#ECB22E"
            d="M14.65 8.252a1.9 1.9 0 1 1 1.9 1.9h-1.9V8.252Zm-0.95 0a1.9 1.9 0 1 1-3.8 0V3.45a1.9 1.9 0 1 1 3.8 0v4.802Z" />
        <path fill="#E01E5A"
            d="M11.803 14.65a1.9 1.9 0 1 1-1.9 1.9V14.65h1.9Zm0-0.95a1.9 1.9 0 1 1 0-3.8h4.8a1.9 1.9 0 1 1 0 3.8h-4.8Z" />
    </g>
</svg>