<svg xmlns="http://www.w3.org/2000/svg" width="18" height="18" viewBox="0 0 18 18" fill="none">
<path d="M8.9974 17.3346C7.84462 17.3346 6.76128 17.1159 5.7474 16.6784C4.73351 16.2409 3.85156 15.6471 3.10156 14.8971C2.35156 14.1471 1.75781 13.2652 1.32031 12.2513C0.882812 11.2374 0.664062 10.1541 0.664062 9.0013C0.664062 7.84852 0.882812 6.76519 1.32031 5.7513C1.75781 4.73741 2.35156 3.85547 3.10156 3.10547C3.85156 2.35547 4.73351 1.76172 5.7474 1.32422C6.76128 0.886719 7.84462 0.667969 8.9974 0.667969C10.1502 0.667969 11.2335 0.886719 12.2474 1.32422C13.2613 1.76172 14.1432 2.35547 14.8932 3.10547C15.6432 3.85547 16.237 4.73741 16.6745 5.7513C17.112 6.76519 17.3307 7.84852 17.3307 9.0013C17.3307 10.1541 17.112 11.2374 16.6745 12.2513C16.237 13.2652 15.6432 14.1471 14.8932 14.8971C14.1432 15.6471 13.2613 16.2409 12.2474 16.6784C11.2335 17.1159 10.1502 17.3346 8.9974 17.3346ZM8.9974 15.668C10.8585 15.668 12.4349 15.0221 13.7266 13.7305C15.0182 12.4388 15.6641 10.8624 15.6641 9.0013C15.6641 8.90408 15.6606 8.80338 15.6536 8.69922C15.6467 8.59505 15.6432 8.50825 15.6432 8.4388C15.5738 8.84158 15.3863 9.17491 15.0807 9.4388C14.7752 9.70269 14.4141 9.83463 13.9974 9.83463H12.3307C11.8724 9.83463 11.48 9.67144 11.1536 9.34505C10.8273 9.01866 10.6641 8.6263 10.6641 8.16797V7.33463H7.33073V5.66797C7.33073 5.20964 7.49392 4.81727 7.82031 4.49089C8.1467 4.1645 8.53906 4.0013 8.9974 4.0013H9.83073C9.83073 3.68186 9.91753 3.40061 10.0911 3.15755C10.2648 2.9145 10.4766 2.71658 10.7266 2.5638C10.4488 2.49436 10.1675 2.4388 9.88281 2.39714C9.59809 2.35547 9.30295 2.33464 8.9974 2.33464C7.13628 2.33464 5.5599 2.98047 4.26823 4.27214C2.97656 5.5638 2.33073 7.14019 2.33073 9.0013H6.4974C7.41406 9.0013 8.19878 9.32769 8.85156 9.98047C9.50434 10.6332 9.83073 11.418 9.83073 12.3346V13.168H7.33073V15.4596C7.60851 15.5291 7.88281 15.5812 8.15365 15.6159C8.42448 15.6506 8.70573 15.668 8.9974 15.668Z" fill="currentColor"/>
</svg>