<svg width="20" height="20" viewBox="0 0 20 20" fill="none" xmlns="http://www.w3.org/2000/svg">
<path d="M10.0013 9.1665C12.3025 9.1665 14.168 11.032 14.168 13.3332V18.3332H12.5013V13.3332C12.5013 12.0018 11.4606 10.9134 10.1482 10.8374L10.0013 10.8332C8.66989 10.8332 7.58159 11.8739 7.50554 13.1863L7.5013 13.3332V18.3332H5.83464V13.3332C5.83464 11.032 7.70012 9.1665 10.0013 9.1665ZM4.58464 11.6665C4.81701 11.6665 5.04304 11.6937 5.25972 11.745C5.11965 12.1615 5.03358 12.6015 5.00877 13.0576L5.0013 13.3332L5.00189 13.4045C4.90761 13.3712 4.80814 13.3488 4.70502 13.3389L4.58464 13.3332C3.93489 13.3332 3.40093 13.8289 3.34036 14.4628L3.33464 14.5832V18.3332H1.66797V14.5832C1.66797 12.9723 2.9738 11.6665 4.58464 11.6665ZM15.418 11.6665C17.0288 11.6665 18.3346 12.9723 18.3346 14.5832V18.3332H16.668V14.5832C16.668 13.9334 16.1722 13.3995 15.5384 13.3389L15.418 13.3332C15.272 13.3332 15.1318 13.3582 15.0016 13.4042L15.0013 13.3332C15.0013 12.7784 14.911 12.2448 14.7442 11.7462C14.9596 11.6937 15.1856 11.6665 15.418 11.6665ZM4.58464 6.6665C5.73523 6.6665 6.66797 7.59925 6.66797 8.74984C6.66797 9.90042 5.73523 10.8332 4.58464 10.8332C3.43404 10.8332 2.5013 9.90042 2.5013 8.74984C2.5013 7.59925 3.43404 6.6665 4.58464 6.6665ZM15.418 6.6665C16.5686 6.6665 17.5013 7.59925 17.5013 8.74984C17.5013 9.90042 16.5686 10.8332 15.418 10.8332C14.2674 10.8332 13.3346 9.90042 13.3346 8.74984C13.3346 7.59925 14.2674 6.6665 15.418 6.6665ZM4.58464 8.33317C4.35452 8.33317 4.16797 8.51975 4.16797 8.74984C4.16797 8.97992 4.35452 9.1665 4.58464 9.1665C4.81475 9.1665 5.0013 8.97992 5.0013 8.74984C5.0013 8.51975 4.81475 8.33317 4.58464 8.33317ZM15.418 8.33317C15.1879 8.33317 15.0013 8.51975 15.0013 8.74984C15.0013 8.97992 15.1879 9.1665 15.418 9.1665C15.6481 9.1665 15.8346 8.97992 15.8346 8.74984C15.8346 8.51975 15.6481 8.33317 15.418 8.33317ZM10.0013 1.6665C11.8422 1.6665 13.3346 3.15889 13.3346 4.99984C13.3346 6.84079 11.8422 8.33317 10.0013 8.33317C8.16035 8.33317 6.66797 6.84079 6.66797 4.99984C6.66797 3.15889 8.16035 1.6665 10.0013 1.6665ZM10.0013 3.33317C9.0808 3.33317 8.33464 4.07936 8.33464 4.99984C8.33464 5.92031 9.0808 6.6665 10.0013 6.6665C10.9218 6.6665 11.668 5.92031 11.668 4.99984C11.668 4.07936 10.9218 3.33317 10.0013 3.33317Z" fill="currentColor"/>
</svg>
