<svg xmlns="http://www.w3.org/2000/svg" width="12" height="12" viewBox="0 0 12 12" fill="none">
<path d="M6 6C5.16667 6 4.45833 5.70833 3.875 5.125C3.29167 4.54167 3 3.83333 3 3C3 2.16667 3.29167 1.45833 3.875 0.875C4.45833 0.291667 5.16667 0 6 0C6.83333 0 7.54167 0.291667 8.125 0.875C8.70833 1.45833 9 2.16667 9 3C9 3.83333 8.70833 4.54167 8.125 5.125C7.54167 5.70833 6.83333 6 6 6ZM0 10.5V10C0 9.68056 0.0868056 9.37847 0.260417 9.09375C0.434028 8.80903 0.673611 8.56944 0.979167 8.375C1.74306 7.93056 2.55208 7.59028 3.40625 7.35417C4.26042 7.11806 5.125 7 6 7C6.875 7 7.73958 7.11806 8.59375 7.35417C9.44792 7.59028 10.2569 7.93056 11.0208 8.375C11.3264 8.55556 11.566 8.79167 11.7396 9.08333C11.9132 9.375 12 9.68056 12 10V10.5C12 10.9167 11.8542 11.2708 11.5625 11.5625C11.2708 11.8542 10.9167 12 10.5 12H1.5C1.08333 12 0.729167 11.8542 0.4375 11.5625C0.145833 11.2708 0 10.9167 0 10.5Z" fill="#B2182B"/>
</svg>