<svg width="24" height="24" viewBox="0 0 24 24" fill="none" xmlns="http://www.w3.org/2000/svg">
<path d="M12 20C13.5822 20 15.129 19.5308 16.4446 18.6518C17.7602 17.7727 18.7855 16.5233 19.391 15.0615C19.9965 13.5997 20.155 11.9911 19.8463 10.4393C19.5376 8.88743 18.7757 7.46197 17.6569 6.34315C16.538 5.22433 15.1126 4.4624 13.5607 4.15372C12.0089 3.84504 10.4003 4.00347 8.93853 4.60897C7.47672 5.21447 6.22729 6.23985 5.34824 7.55544C4.46919 8.87103 4 10.4178 4 12C4.00224 14.121 4.84581 16.1546 6.34562 17.6544C7.84542 19.1542 9.87895 19.9978 12 20ZM12.6154 15.6923C12.6154 15.8555 12.5505 16.012 12.4351 16.1275C12.3197 16.2429 12.1632 16.3077 12 16.3077C11.8368 16.3077 11.6803 16.2429 11.5649 16.1275C11.4494 16.012 11.3846 15.8555 11.3846 15.6923L11.3846 11.3846C11.3846 11.2214 11.4494 11.0649 11.5649 10.9495C11.6803 10.8341 11.8368 10.7692 12 10.7692C12.1632 10.7692 12.3197 10.8341 12.4351 10.9495C12.5505 11.0649 12.6154 11.2214 12.6154 11.3846L12.6154 15.6923ZM12 7.69231C12.1826 7.69231 12.361 7.74645 12.5128 7.84788C12.6646 7.94931 12.7829 8.09347 12.8528 8.26214C12.9227 8.43081 12.941 8.61641 12.9053 8.79547C12.8697 8.97453 12.7818 9.13901 12.6527 9.2681C12.5236 9.3972 12.3591 9.48511 12.1801 9.52073C12.001 9.55634 11.8154 9.53806 11.6468 9.4682C11.4781 9.39833 11.3339 9.28002 11.2325 9.12822C11.1311 8.97642 11.0769 8.79795 11.0769 8.61539C11.0769 8.37057 11.1742 8.13578 11.3473 7.96267C11.5204 7.78956 11.7552 7.69231 12 7.69231Z" fill="#a54800"/>
</svg>