<svg width="24" height="24" viewBox="0 0 24 24" fill="none" xmlns="http://www.w3.org/2000/svg">
<g clip-path="url(#clip0_397_20218)">
<path d="M2.64 0H21.36L21.765 0.09L22.005 0.165L22.23 0.255L22.575 0.435L22.815 0.6L23.025 0.78L23.28 1.035L23.475 1.29L23.595 1.485L23.745 1.77L23.865 2.085L23.97 2.505L24 2.67V19.215L23.88 19.32L19.2 24H2.685L2.145 23.88L1.92 23.805L1.65 23.685L1.41 23.55L1.23 23.43L1.065 23.295L0.87 23.115L0.765 23.01L0.63 22.845L0.495 22.665L0.36 22.44L0.21 22.125L0.105 21.81L0.03 21.51L0 21.345V2.625L0.12 2.115L0.24 1.8L0.39 1.5L0.555 1.245L0.72 1.035L1.05 0.705L1.305 0.51L1.53 0.375L1.77 0.255L1.98 0.165L2.355 0.06L2.64 0Z" fill="#2D89F9"/>
<path d="M3.83984 5.93994H6.32984L6.37484 6.04494L6.53984 6.71994L6.73484 7.55994L6.86984 8.12994L7.04984 8.87994L7.15484 9.34494L7.34984 10.1699L7.67984 11.5799L7.87484 12.4199L8.00984 13.0349L8.12984 13.6049L8.24984 14.2199L8.41484 15.1949L8.44484 15.4049L8.47484 15.3299L8.60984 14.4749L8.77484 13.5899L8.89484 13.0499L9.19484 11.9099L9.38984 11.1749L9.55484 10.5299L9.85484 9.37494L10.1998 8.05494L10.6048 6.47994L10.7398 5.98494L10.7698 5.93994H13.1548L13.1998 6.02994L13.3048 6.41994L13.5298 7.27494L13.6948 7.91994L13.8298 8.42994L13.9798 8.99994L14.1598 9.70494L14.3248 10.3349L14.5498 11.1899L14.7148 11.8349L14.9698 12.8249L15.1198 13.5149L15.2698 14.3249L15.4198 15.1949L15.4348 15.3149V15.4649H15.4648L15.5548 14.8799L15.7498 13.8149L15.8548 13.2899L16.0198 12.5549L16.3648 11.0849L16.7248 9.53994L17.0698 8.06994L17.2648 7.22994L17.5348 6.07494L17.5948 5.93994H20.0698L20.0848 5.99994L19.7848 7.18494L19.5748 8.00994L19.4098 8.65494L19.1998 9.46494L18.9598 10.4249L18.6748 11.5499L18.4798 12.2999L18.2698 13.1399L18.0598 13.9499L17.8348 14.8499L17.5798 15.8399L17.1298 17.6249L17.0548 17.8949L17.0248 17.9399L16.8898 17.9549H14.1598L14.1148 17.9099L14.0248 17.5949L13.8598 16.9499L13.5748 15.8399L13.3198 14.8649L13.1098 14.0399L12.7948 12.8099L12.4798 11.5949L12.3598 11.0999L12.1948 10.3199L12.0448 9.56994L11.9848 9.19494L11.9548 8.99994L11.8498 9.59994L11.7148 10.3049L11.5648 11.0249L11.3998 11.7299L11.0848 12.9599L10.9048 13.6649L10.6798 14.5199L10.4698 15.3449L10.1548 16.5749L9.94484 17.3999L9.80984 17.8949L9.77984 17.9399L9.58484 17.9549H6.91484L6.86984 17.8799L6.71984 17.3249L6.50984 16.4849L5.93984 14.2649L5.72984 13.4249L5.44484 12.3149L5.21984 11.4449L5.05484 10.7999L4.82984 9.89994L4.54484 8.78994L4.16984 7.31994L3.88484 6.20994L3.83984 6.04494V5.93994Z" fill="#FCFCFD"/>
<path d="M23.0402 19.2H24.0002L19.2152 23.985H19.2002V22.545L19.2152 21.345L19.2302 20.505L19.2452 20.235L19.2902 20.07L19.4102 19.83L19.5302 19.68L19.6952 19.515L19.9052 19.38L20.0702 19.305L20.2802 19.26L20.5952 19.245L22.4552 19.215L23.0402 19.2Z" fill="#97C4FD"/>
<path d="M8.40039 15.1951H8.41539L8.44539 15.4051L8.47539 15.3301L8.49039 15.2401H8.50539V15.3601L8.47539 15.5101L8.43039 15.5251L8.41539 15.4951L8.40039 15.1951Z" fill="#97C4FD"/>
<path d="M15.4949 15.27H15.5099L15.4949 15.465L15.4649 15.555L15.4199 15.54V15.315H15.4349V15.465H15.4649L15.4949 15.27Z" fill="#97C4FD"/>
</g>
<defs>
<clipPath id="clip0_397_20218">
<rect width="24" height="24" fill="white"/>
</clipPath>
</defs>
</svg>
